<svg xmlns="http://www.w3.org/2000/svg" xmlns:xlink="http://www.w3.org/1999/xlink" width="88" height="48" viewBox="0 0 88 48"><defs><path id="a" d="M.32.366h54.635v25.166H.321z"/><path id="c" d="M0 .366h8.578v24.529H0z"/><path id="e" d="M.16.366H8.74v24.529H.16z"/></defs><g fill="none" fill-rule="evenodd"><path fill="#000" d="M0 0h88v48H0z"/><g transform="translate(21.224 11.38)"><mask id="b" fill="#fff"><use xlink:href="#a"/></mask><path fill="#FD0" d="M49.596.366v15.106l.001.037c.001.02.11 2.078-1.236 3.488-.875.915-2.187 1.38-3.903 1.38-1.715 0-3.028-.465-3.901-1.38-1.346-1.409-1.237-3.467-1.236-3.486L39.323.366h-2.21L33.96 11.79v3.553c0 3.023.994 5.585 2.873 7.407 1.877 1.82 4.513 2.783 7.624 2.783 3.11 0 5.747-.962 7.624-2.783 1.88-1.822 2.874-4.384 2.874-7.407V.366h-5.36zm-15.635 0l-6.766 24.529h-4.91l-5.127-16.26-5.128 16.26H7.155L.32.365h5.32L9.823 15.89 14.712.366h4.923l4.976 15.639L28.704.365h5.257z" mask="url(#b)"/></g><g transform="translate(11.906 11.38)"><mask id="d" fill="#fff"><use xlink:href="#c"/></mask><path fill="#FFF" d="M6.834 24.895L0 .365h1.744l6.834 24.53z" mask="url(#d)"/></g><g transform="translate(16.565 11.38)"><mask id="f" fill="#fff"><use xlink:href="#e"/></mask><path fill="#FFF" d="M6.994 24.895L.16.365h1.745l6.834 24.53z" mask="url(#f)"/></g></g></svg>